<svg xmlns="http://www.w3.org/2000/svg" width="96" height="96" viewBox="0 0 96 96" role="img" aria-label="Avatar 2">
  <defs>
    <clipPath id="clip2">
      <circle cx="48" cy="48" r="44"></circle>
    </clipPath>
  </defs>

  <circle cx="48" cy="48" r="44" fill="#FFF4D6"></circle>

  <g clip-path="url(#clip2)">
    <!-- background -->
    <path d="M-4 70 C18 54, 32 64, 54 52 C74 41, 92 50, 104 34 L104 104 L-4 104 Z" fill="#FFE9A6"></path>

    <!-- ears -->
    <circle cx="30" cy="34" r="10" fill="#B8895B"></circle>
    <circle cx="66" cy="34" r="10" fill="#B8895B"></circle>
    <circle cx="30" cy="34" r="6" fill="#E8C7A6"></circle>
    <circle cx="66" cy="34" r="6" fill="#E8C7A6"></circle>

    <!-- head -->
    <circle cx="48" cy="46" r="22" fill="#C99A6B"></circle>

    <!-- muzzle -->
    <ellipse cx="48" cy="54" rx="14" ry="11" fill="#F4E1CC"></ellipse>

    <!-- eyes -->
    <circle cx="40" cy="44" r="3" fill="#2B2B2B"></circle>
    <circle cx="56" cy="44" r="3" fill="#2B2B2B"></circle>
    <path d="M36 40 C39 37, 43 37, 46 40" fill="none" stroke="#8C6442" stroke-width="2" stroke-linecap="round"></path>
    <path d="M50 40 C53 37, 57 37, 60 40" fill="none" stroke="#8C6442" stroke-width="2" stroke-linecap="round"></path>

    <!-- nose + smile -->
    <path d="M48 50 L44 54 L52 54 Z" fill="#2B2B2B"></path>
    <path d="M41 58 C45 63, 51 63, 55 58" fill="none" stroke="#2B2B2B" stroke-width="2" stroke-linecap="round"></path>

    <!-- shirt -->
    <path d="M14 96 C18 78, 33 68, 48 68 C63 68, 78 78, 82 96 Z" fill="#2EC4B6"></path>
    <path d="M36 69 L48 79 L60 69" fill="none" stroke="#FFFFFF" stroke-width="3" stroke-linecap="round" stroke-linejoin="round"></path>
  </g>

  <circle cx="48" cy="48" r="44" fill="none" stroke="#F1D58A" stroke-width="2"></circle>
</svg>