<svg xmlns="http://www.w3.org/2000/svg" width="96" height="96" viewBox="0 0 96 96" role="img" aria-label="Avatar 4">
  <defs>
    <clipPath id="clip4">
      <circle cx="48" cy="48" r="44"></circle>
    </clipPath>
    <linearGradient id="g4" x1="0" y1="0" x2="1" y2="1">
      <stop offset="0" stop-color="#FFE6EE"></stop>
      <stop offset="1" stop-color="#E9F2FF"></stop>
    </linearGradient>
  </defs>

  <circle cx="48" cy="48" r="44" fill="url(#g4)"></circle>

  <g clip-path="url(#clip4)">
    <!-- background shapes -->
    <circle cx="18" cy="30" r="14" fill="#FFD1DC" opacity="0.7"></circle>
    <circle cx="84" cy="62" r="18" fill="#CFE3FF" opacity="0.7"></circle>

    <!-- hair -->
    <path d="M30 44 C30 28, 40 22, 50 22 C62 22, 70 30, 70 44
             C66 36, 58 36, 52 34 C46 32, 38 34, 30 44Z" fill="#2B2B2B"></path>

    <!-- face -->
    <circle cx="48" cy="48" r="18" fill="#FFD7C2"></circle>

    <!-- eyes -->
    <path d="M38 48 C40 46, 42 46, 44 48" fill="none" stroke="#2B2B2B" stroke-width="2" stroke-linecap="round"></path>
    <path d="M52 48 C54 46, 56 46, 58 48" fill="none" stroke="#2B2B2B" stroke-width="2" stroke-linecap="round"></path>

    <!-- nose -->
    <path d="M48 49 C47 52, 49 52, 48 54" fill="none" stroke="#C07A6A" stroke-width="2" stroke-linecap="round"></path>

    <!-- mouth -->
    <path d="M42 58 C46 61, 50 61, 54 58" fill="none" stroke="#C73A5A" stroke-width="2" stroke-linecap="round"></path>

    <!-- shirt -->
    <path d="M12 96 C16 78, 32 70, 48 70 C64 70, 80 78, 84 96 Z" fill="#8B5CF6"></path>
    <path d="M34 72 C38 78, 42 82, 48 82 C54 82, 58 78, 62 72" fill="none" stroke="#FFFFFF" stroke-width="3" stroke-linecap="round" opacity="0.9"></path>
  </g>

  <circle cx="48" cy="48" r="44" fill="none" stroke="#E6C7D2" stroke-width="2"></circle>
</svg>